<svg width="44" height="42" viewBox="0 0 44 42" fill="none" xmlns="http://www.w3.org/2000/svg">
<rect width="44" height="42" fill="white"/>
<path d="M40.3333 21C40.3333 11.3348 32.1255 3.5 22 3.5C11.8745 3.5 3.66667 11.3348 3.66667 21C3.66667 30.6652 11.8745 38.5 22 38.5" stroke="#2C2857" stroke-width="1.5" stroke-linecap="round" stroke-linejoin="round"/>
<path d="M23.8333 3.5874C23.8333 3.5874 29.3333 10.4999 29.3333 20.9999M20.1667 38.4124C20.1667 38.4124 14.6667 31.4999 14.6667 20.9999C14.6667 10.4999 20.1667 3.5874 20.1667 3.5874M4.82167 27.1249H22M4.82167 14.8749H39.1783" stroke="#2C2857" stroke-width="1.5" stroke-linecap="round" stroke-linejoin="round"/>
<path d="M40.1115 31.3549C41.0172 31.8869 40.9603 33.1801 40.029 33.2816L35.3228 33.7909L33.2127 37.8369C32.7947 38.6401 31.5022 38.2464 31.2877 37.2524L28.9868 26.5494C28.8053 25.7094 29.5973 25.1809 30.3618 25.6306L40.1115 31.3549Z" fill="#D9AC0A" stroke="#D9AC0A" stroke-width="1.5"/>
</svg>
