<svg width="48" height="61" viewBox="0 0 48 61" fill="none" xmlns="http://www.w3.org/2000/svg">
<path d="M37.5 3.90781C37.5 2.00156 35.925 0 34.275 0H13.725C12.075 0 10.5 2.00156 10.5 3.90781V56.9969C10.5 58.9984 12.075 60.9047 13.725 60.9047H34.35C35.925 60.9047 37.575 58.9031 37.575 56.9969V3.90781H37.5Z" fill="#5C6D6D"/>
<path d="M36.75 56.2344C36.75 58.1406 35.25 60.0469 33.75 60.0469H14.25C12.75 60.0469 11.25 58.1406 11.25 56.2344V4.76562C11.25 2.85938 12.75 0.953125 14.25 0.953125H33.75C35.25 0.953125 36.75 2.85938 36.75 4.76562V56.2344Z" fill="#212528"/>
<path d="M32.625 5.24219C33.0392 5.24219 33.375 4.81546 33.375 4.28906C33.375 3.76267 33.0392 3.33594 32.625 3.33594C32.2108 3.33594 31.875 3.76267 31.875 4.28906C31.875 4.81546 32.2108 5.24219 32.625 5.24219Z" fill="#94989B"/>
<path d="M26.25 4.28906C26.25 4.575 26.175 4.76562 26.025 4.76562H21.975C21.825 4.76562 21.75 4.575 21.75 4.28906C21.75 4.09844 21.825 3.8125 21.975 3.8125H26.025C26.175 3.8125 26.25 4.09844 26.25 4.28906Z" fill="#94989B"/>
<path d="M12.75 7.625H35.25V53.375H12.75V7.625Z" fill="#3E4347"/>
<path d="M26.85 57.3782C26.85 57.7595 26.625 58.1407 26.25 58.1407H21.75C21.45 58.1407 21.15 57.8548 21.15 57.3782V55.9485C21.15 55.5673 21.375 55.186 21.75 55.186H26.25C26.55 55.186 26.85 55.472 26.85 55.9485V57.3782Z" fill="#94989B"/>
<path d="M18 14.0108C18 14.4874 17.7 14.7733 17.4 14.7733H14.925C14.55 14.7733 14.325 14.3921 14.325 14.0108V10.8655C14.325 10.389 14.625 10.103 14.925 10.103H17.4C17.775 10.103 18 10.4843 18 10.8655V14.0108Z" fill="#42ADE2"/>
<path d="M23.25 14.0108C23.25 14.4874 22.95 14.7733 22.65 14.7733H20.175C19.8 14.7733 19.575 14.3921 19.575 14.0108V10.8655C19.575 10.389 19.875 10.103 20.175 10.103H22.65C23.025 10.103 23.25 10.4843 23.25 10.8655V14.0108Z" fill="#C7E755"/>
<path d="M28.5 14.0108C28.5 14.4874 28.2 14.7733 27.9 14.7733H25.425C25.05 14.7733 24.825 14.3921 24.825 14.0108V10.8655C24.825 10.389 25.125 10.103 25.425 10.103H27.9C28.275 10.103 28.5 10.4843 28.5 10.8655V14.0108Z" fill="#F2B200"/>
<path d="M33.75 14.0108C33.75 14.4874 33.45 14.7733 33.15 14.7733H30.675C30.3 14.7733 30.075 14.3921 30.075 14.0108V10.8655C30.075 10.389 30.375 10.103 30.675 10.103H33.15C33.525 10.103 33.75 10.4843 33.75 10.8655V14.0108Z" fill="#42ADE2"/>
<path d="M18 50.7062C18 51.1827 17.7 51.4687 17.4 51.4687H14.925C14.55 51.4687 14.325 51.0874 14.325 50.7062V47.5608C14.325 47.0843 14.625 46.7983 14.925 46.7983H17.4C17.775 46.7983 18 47.1796 18 47.5608V50.7062Z" fill="#C7E755"/>
<path d="M23.25 50.7062C23.25 51.1827 22.95 51.4687 22.65 51.4687H20.175C19.8 51.4687 19.575 51.0874 19.575 50.7062V47.5608C19.575 47.0843 19.875 46.7983 20.175 46.7983H22.65C23.025 46.7983 23.25 47.1796 23.25 47.5608V50.7062Z" fill="#FF435E"/>
<path d="M28.5 50.7062C28.5 51.1827 28.2 51.4687 27.9 51.4687H25.425C25.05 51.4687 24.825 51.0874 24.825 50.7062V47.5608C24.825 47.0843 25.125 46.7983 25.425 46.7983H27.9C28.275 46.7983 28.5 47.1796 28.5 47.5608V50.7062Z" fill="#42ADE2"/>
<path d="M33.75 50.7062C33.75 51.1827 33.45 51.4687 33.15 51.4687H30.675C30.3 51.4687 30.075 51.0874 30.075 50.7062V47.5608C30.075 47.0843 30.375 46.7983 30.675 46.7983H33.15C33.525 46.7983 33.75 47.1796 33.75 47.5608V50.7062Z" fill="#C28FEF"/>
<path d="M18 32.3111C18 32.7877 17.7 33.0736 17.4 33.0736H14.925C14.55 33.0736 14.325 32.6924 14.325 32.3111V29.1658C14.325 28.6893 14.625 28.4033 14.925 28.4033H17.4C17.775 28.4033 18 28.7846 18 29.1658V32.3111Z" fill="#C7E755"/>
<path d="M23.25 32.3111C23.25 32.7877 22.95 33.0736 22.65 33.0736H20.175C19.8 33.0736 19.575 32.6924 19.575 32.3111V29.1658C19.575 28.6893 19.875 28.4033 20.175 28.4033H22.65C23.025 28.4033 23.25 28.7846 23.25 29.1658V32.3111Z" fill="#C28FEF"/>
<path d="M28.5 32.3111C28.5 32.7877 28.2 33.0736 27.9 33.0736H25.425C25.05 33.0736 24.825 32.6924 24.825 32.3111V29.1658C24.825 28.6893 25.125 28.4033 25.425 28.4033H27.9C28.275 28.4033 28.5 28.7846 28.5 29.1658V32.3111Z" fill="#42ADE2"/>
<path d="M18 26.211C18 26.6876 17.7 26.9735 17.4 26.9735H14.925C14.55 26.9735 14.325 26.5923 14.325 26.211V23.0657C14.325 22.5892 14.625 22.3032 14.925 22.3032H17.4C17.775 22.3032 18 22.6845 18 23.0657V26.211Z" fill="#FF435E"/>
<path d="M23.25 26.211C23.25 26.6876 22.95 26.9735 22.65 26.9735H20.175C19.8 26.9735 19.575 26.5923 19.575 26.211V23.0657C19.575 22.5892 19.875 22.3032 20.175 22.3032H22.65C23.025 22.3032 23.25 22.6845 23.25 23.0657V26.211Z" fill="#F2B200"/>
<path d="M28.5 26.211C28.5 26.6876 28.2 26.9735 27.9 26.9735H25.425C25.05 26.9735 24.825 26.5923 24.825 26.211V23.0657C24.825 22.5892 25.125 22.3032 25.425 22.3032H27.9C28.275 22.3032 28.5 22.6845 28.5 23.0657V26.211Z" fill="#C7E755"/>
<path d="M33.75 26.211C33.75 26.6876 33.45 26.9735 33.15 26.9735H30.675C30.3 26.9735 30.075 26.5923 30.075 26.211V23.0657C30.075 22.5892 30.375 22.3032 30.675 22.3032H33.15C33.525 22.3032 33.75 22.6845 33.75 23.0657V26.211Z" fill="#F2B200"/>
<path d="M18 20.1109C18 20.5875 17.7 20.8734 17.4 20.8734H14.925C14.55 20.8734 14.325 20.4922 14.325 20.1109V16.9656C14.325 16.4891 14.625 16.2031 14.925 16.2031H17.4C17.775 16.2031 18 16.5844 18 16.9656V20.1109Z" fill="#C28FEF"/>
<path d="M23.25 20.1109C23.25 20.5875 22.95 20.8734 22.65 20.8734H20.175C19.8 20.8734 19.575 20.4922 19.575 20.1109V16.9656C19.575 16.4891 19.875 16.2031 20.175 16.2031H22.65C23.025 16.2031 23.25 16.5844 23.25 16.9656V20.1109Z" fill="#42ADE2"/>
<path d="M28.5 20.1109C28.5 20.5875 28.2 20.8734 27.9 20.8734H25.425C25.05 20.8734 24.825 20.4922 24.825 20.1109V16.9656C24.825 16.4891 25.125 16.2031 25.425 16.2031H27.9C28.275 16.2031 28.5 16.5844 28.5 16.9656V20.1109Z" fill="#FF435E"/>
<path d="M33.75 20.1109C33.75 20.5875 33.45 20.8734 33.15 20.8734H30.675C30.3 20.8734 30.075 20.4922 30.075 20.1109V16.9656C30.075 16.4891 30.375 16.2031 30.675 16.2031H33.15C33.525 16.2031 33.75 16.5844 33.75 16.9656V20.1109Z" fill="#C28FEF"/>
</svg>
