<svg width="61" height="62" viewBox="0 0 61 62" fill="none" xmlns="http://www.w3.org/2000/svg">
<path fill-rule="evenodd" clip-rule="evenodd" d="M16.6098 33.904C17.8323 35.3985 20.9433 40.9355 21.6042 43.7085H39.3958C40.0567 40.9381 43.1639 35.4011 44.3864 33.9078C46.4755 31.3594 47.7906 28.2656 48.176 24.9929C48.5562 21.7265 47.9875 18.4198 46.5379 15.468C45.0746 12.4944 42.7993 9.99577 39.9753 8.26114C37.1265 6.50889 33.8471 5.58193 30.5025 5.5835C27.1514 5.5835 23.8675 6.51121 21.0297 8.2586C18.205 9.99257 15.9289 12.4908 14.4646 15.4642C13.0142 18.4148 12.4442 21.7206 12.8227 24.9866C13.2027 28.2488 14.5155 31.3407 16.6098 33.904ZM31.7708 15.7502L24.1458 27.1877H29.2292V34.8127L36.8542 23.3752H31.7708V15.7502Z" fill="#D9AC0A"/>
<path d="M21.6042 47.5208C21.6042 47.1838 21.7381 46.8605 21.9764 46.6222C22.2147 46.3839 22.538 46.25 22.875 46.25H38.125C38.462 46.25 38.7853 46.3839 39.0236 46.6222C39.2619 46.8605 39.3958 47.1838 39.3958 47.5208C39.3958 47.8579 39.2619 48.1811 39.0236 48.4194C38.7853 48.6578 38.462 48.7917 38.125 48.7917H22.875C22.538 48.7917 22.2147 48.6578 21.9764 48.4194C21.7381 48.1811 21.6042 47.8579 21.6042 47.5208ZM39.3958 51.3333H21.6042V53.875C21.6042 54.5491 21.872 55.1956 22.3486 55.6722C22.8253 56.1489 23.4717 56.4167 24.1458 56.4167H36.8542C37.5283 56.4167 38.1747 56.1489 38.6514 55.6722C39.1281 55.1956 39.3958 54.5491 39.3958 53.875V51.3333Z" fill="#2C2857"/>
</svg>
