<svg width="32" height="32" viewBox="0 0 32 32" fill="none" xmlns="http://www.w3.org/2000/svg">
<rect x="32" y="32" width="32" height="32" rx="16" transform="rotate(-180 32 32)" fill="#E0FEEA"/>
<path d="M12.1932 17.4134L15.0599 20.2734C15.3097 20.5217 15.6477 20.6611 15.9999 20.6611C16.3521 20.6611 16.6901 20.5217 16.9399 20.2734L19.8066 17.4134C19.9307 17.2885 20.0004 17.1195 20.0004 16.9434C20.0004 16.7673 19.9307 16.5983 19.8066 16.4734C19.7446 16.4109 19.6709 16.3613 19.5896 16.3275C19.5084 16.2936 19.4212 16.2762 19.3332 16.2762C19.2452 16.2762 19.1581 16.2936 19.0768 16.3275C18.9956 16.3613 18.9219 16.4109 18.8599 16.4734L16.6666 18.6667L16.6666 11.3334C16.6666 11.1566 16.5963 10.987 16.4713 10.862C16.3463 10.737 16.1767 10.6667 15.9999 10.6667C15.8231 10.6667 15.6535 10.737 15.5285 10.862C15.4035 10.987 15.3332 11.1566 15.3332 11.3334L15.3332 18.6667L13.1399 16.4734C13.0152 16.3479 12.8458 16.277 12.6689 16.2764C12.492 16.2757 12.3221 16.3454 12.1966 16.4701C12.071 16.5947 12.0002 16.7641 11.9995 16.9411C11.9989 17.118 12.0686 17.2879 12.1932 17.4134Z" fill="#374957"/>
</svg>
