<svg width="32" height="32" viewBox="0 0 32 32" fill="none" xmlns="http://www.w3.org/2000/svg">
<rect width="32" height="32" rx="16" fill="#FFC8C8"/>
<path d="M19.8068 14.5866L16.9401 11.7266C16.6903 11.4783 16.3523 11.3389 16.0001 11.3389C15.6479 11.3389 15.3099 11.4783 15.0601 11.7266L12.1934 14.5866C12.0693 14.7115 11.9996 14.8805 11.9996 15.0566C11.9996 15.2327 12.0693 15.4017 12.1934 15.5266C12.2554 15.5891 12.3291 15.6387 12.4104 15.6725C12.4916 15.7064 12.5788 15.7238 12.6668 15.7238C12.7548 15.7238 12.8419 15.7064 12.9232 15.6725C13.0044 15.6387 13.0781 15.5891 13.1401 15.5266L15.3334 13.3333L15.3334 20.6666C15.3334 20.8434 15.4037 21.013 15.5287 21.138C15.6537 21.263 15.8233 21.3333 16.0001 21.3333C16.1769 21.3333 16.3465 21.263 16.4715 21.138C16.5965 21.013 16.6668 20.8434 16.6668 20.6666V13.3333L18.8601 15.5266C18.9848 15.6521 19.1542 15.723 19.3311 15.7236C19.508 15.7243 19.6779 15.6546 19.8034 15.5299C19.929 15.4053 19.9998 15.2359 20.0005 15.0589C20.0011 14.882 19.9314 14.7121 19.8068 14.5866Z" fill="#374957"/>
</svg>
