<svg width="51" height="51" viewBox="0 0 51 51" fill="none" xmlns="http://www.w3.org/2000/svg">
<path d="M20.4167 49.2647V34.7772L23.975 24.6106C24.1868 24.1446 24.4935 23.7532 24.8951 23.4363C25.2984 23.1178 25.7965 22.9585 26.3896 22.9585H44.9438C45.5368 22.9585 46.035 23.1178 46.4383 23.4363C46.8398 23.7532 47.1465 24.1446 47.3583 24.6106L50.9167 34.7772V49.2647C50.9167 49.7307 50.7574 50.1221 50.4388 50.439C50.122 50.7575 49.7306 50.9168 49.2646 50.9168H47.4854C47.0195 50.9168 46.628 50.7575 46.3112 50.439C45.9926 50.1221 45.8333 49.7307 45.8333 49.2647V47.1043H25.5V49.2647C25.5 49.7307 25.3407 50.1221 25.0222 50.439C24.7053 50.7575 24.3139 50.9168 23.8479 50.9168H22.0688C21.6028 50.9168 21.2114 50.7575 20.8945 50.439C20.576 50.1221 20.4167 49.7307 20.4167 49.2647ZM25.5 31.8543H45.8333L44.0542 26.771H27.2792L25.5 31.8543ZM28.0417 42.021C28.7618 42.021 29.3659 41.777 29.8539 41.289C30.3402 40.8027 30.5833 40.1995 30.5833 39.4793C30.5833 38.7592 30.3402 38.156 29.8539 37.6697C29.3659 37.1817 28.7618 36.9377 28.0417 36.9377C27.3215 36.9377 26.7183 37.1817 26.232 37.6697C25.744 38.156 25.5 38.7592 25.5 39.4793C25.5 40.1995 25.744 40.8027 26.232 41.289C26.7183 41.777 27.3215 42.021 28.0417 42.021ZM43.2917 42.021C44.0118 42.021 44.615 41.777 45.1013 41.289C45.5893 40.8027 45.8333 40.1995 45.8333 39.4793C45.8333 38.7592 45.5893 38.156 45.1013 37.6697C44.615 37.1817 44.0118 36.9377 43.2917 36.9377C42.5715 36.9377 41.9683 37.1817 41.482 37.6697C40.994 38.156 40.75 38.7592 40.75 39.4793C40.75 40.1995 40.994 40.8027 41.482 41.289C41.9683 41.777 42.5715 42.021 43.2917 42.021ZM10.25 30.5835V25.5002H15.3333V30.5835H10.25ZM22.9583 15.3335V10.2502H28.0417V15.3335H22.9583ZM10.25 40.7502V35.6668H15.3333V40.7502H10.25ZM10.25 50.9168V45.8335H15.3333V50.9168H10.25ZM0.0833435 50.9168V15.3335H12.7917V0.0834961H38.2083V17.8752H33.125V5.16683H17.875V20.4168H5.16668V50.9168H0.0833435Z" fill="#010E2A"/>
</svg>
